<?xml version="1.0" encoding="utf-8"?><svg xmlns="http://www.w3.org/2000/svg" xmlns:xlink="http://www.w3.org/1999/xlink"><symbol viewBox="0 0 400 400" id="copyright-icon" xmlns="http://www.w3.org/2000/svg"><path d="M200 0C89.818 0 0 89.819 0 200s89.818 200 200 200 200-89.818 200-200S310.181 0 200 0zm0 46.5c85.045 0 153.469 68.455 153.469 153.5S285.045 353.469 200 353.469 46.5 285.045 46.5 200 114.955 46.5 200 46.5zm4.156 51.063c-39.132-.806-78.516 25.436-88.438 64.031-10.22 33.575-7.386 72.189 10.406 102.625 15.435 24.285 44.01 38.379 72.594 38.031 19.645.725 40.166-1.384 58-9.719 8.193-7.768 2.306-20.071 4.594-29.656.735-6.255-5.228-13.289-11.75-10.281-22.351 5.77-47.848 11.693-69.375.719-18.83-11.129-23.772-35.071-23.094-55.406.112-19.797 7.05-42.124 25.719-51.812 19.503-9.909 42.661-4.873 61.656 3.594 8.891 1.161 15.429-7.1 16.938-14.969 3.119-6.713 6.565-13.287 9.344-20.156-19.943-11.922-43.361-17.525-66.594-17.001z"/></symbol><symbol viewBox="0 0 438.533 438.533" id="drib-icon" xmlns="http://www.w3.org/2000/svg"><path d="M409.133 109.203c-19.608-33.592-46.205-60.189-79.798-79.796C295.736 9.801 259.058 0 219.273 0c-39.781 0-76.47 9.801-110.063 29.407-33.595 19.604-60.192 46.201-79.8 79.796C9.801 142.8 0 179.489 0 219.267c0 39.78 9.804 76.463 29.407 110.062 19.607 33.592 46.204 60.189 79.799 79.798 33.597 19.605 70.283 29.407 110.063 29.407s76.47-9.802 110.065-29.407c33.593-19.602 60.189-46.206 79.795-79.798 19.603-33.596 29.403-70.284 29.403-110.062.001-39.782-9.8-76.472-29.399-110.064zM219.27 31.977c47.201 0 88.41 15.607 123.621 46.82l-3.569 4.993c-1.427 2.002-4.996 5.852-10.704 11.565-5.709 5.708-11.943 11.136-18.699 16.274-6.762 5.14-15.94 10.992-27.555 17.559-11.611 6.567-23.982 12.328-37.117 17.276-21.887-40.355-45.296-76.709-70.231-109.064 15.039-3.616 29.789-5.423 44.254-5.423zM72.524 103.06c18.271-23.026 40.537-40.73 66.806-53.1 23.601 31.405 46.82 67.381 69.662 107.921-57.862 15.227-115.532 22.841-173.014 22.838 6.094-28.739 18.275-54.628 36.546-77.659zM44.54 286.794c-8.376-21.412-12.563-43.923-12.563-67.527 0-2.666.098-4.665.286-5.996 68.905 0 132.955-8.848 192.149-26.553 6.092 11.8 11.136 22.364 15.133 31.693-.771.38-1.999.806-3.713 1.283-1.719.476-2.953.806-3.721.999l-10.561 3.711c-7.236 2.666-16.708 7.235-28.409 13.703-11.704 6.478-24.123 14.182-37.257 23.13-13.134 8.949-26.696 20.797-40.684 35.553-13.99 14.75-25.743 30.591-35.26 47.53-15.227-16.939-27.026-36.12-35.4-57.526zM219.27 406.56c-44.54 0-84.32-14.277-119.343-42.825l4.283 3.142c6.661-14.66 16.462-28.746 29.408-42.257 12.944-13.511 25.41-24.413 37.401-32.695 11.991-8.274 25.028-16.077 39.115-23.414 14.084-7.323 23.691-11.991 28.835-13.983 5.14-1.998 9.233-3.572 12.278-4.716l.568-.287h.575c18.647 48.916 31.977 96.313 39.968 142.184-23.602 9.902-47.961 14.848-73.088 14.851zm157.606-86.081c-14.086 21.796-31.696 39.834-52.817 54.104-7.81-43.776-19.985-88.415-36.549-133.902 37.877-5.907 76.8-3.142 116.771 8.274-4.189 25.886-13.326 49.732-27.405 71.524zm26.83-103.781a232.46 232.46 0 0 0-7.139-1.283c-2.854-.473-6.331-1.047-10.424-1.713-4.087-.666-8.662-1.283-13.702-1.855a549.162 549.162 0 0 0-16.136-1.569c-5.708-.478-11.8-.855-18.268-1.143a449.763 449.763 0 0 0-19.705-.428c-6.656 0-13.657.193-20.981.571a246.549 246.549 0 0 0-21.265 1.999c-.575-.953-1.287-2.524-2.143-4.714-.855-2.187-1.479-3.855-1.848-4.997a1895.128 1895.128 0 0 0-12.573-27.121c13.134-5.333 25.652-11.469 37.555-18.418 11.892-6.949 21.402-13.131 28.544-18.555a237.319 237.319 0 0 0 20.27-17.277c6.379-6.09 10.513-10.323 12.423-12.703a286.978 286.978 0 0 0 5.424-6.995l.287-.288c27.788 33.88 41.974 72.897 42.538 117.059l-2.857-.57z"/></symbol><symbol viewBox="0 0 430.113 430.114" id="fb-icon" xmlns="http://www.w3.org/2000/svg"><path d="M158.081 83.3v59.218h-43.385v72.412h43.385v215.183h89.122V214.936h59.805s5.601-34.721 8.316-72.685H247.54V92.74c0-7.4 9.717-17.354 19.321-17.354h48.557V.001h-66.021C155.878-.004 158.081 72.48 158.081 83.3z"/></symbol><symbol viewBox="0 0 475.092 475.092" id="g-plus-icon" xmlns="http://www.w3.org/2000/svg"><path d="M273.372 302.498a148.384 148.384 0 0 0-16.7-18.842c-6.091-5.804-12.183-11.088-18.271-15.845-6.092-4.757-11.659-9.329-16.702-13.709-5.042-4.374-9.135-8.945-12.275-13.702-3.14-4.757-4.711-9.61-4.711-14.558 0-6.855 2.19-13.278 6.567-19.274 4.377-5.996 9.707-11.799 15.986-17.417 6.28-5.617 12.559-11.753 18.844-18.415 6.276-6.665 11.604-15.465 15.985-26.412 4.373-10.944 6.563-23.458 6.563-37.542 0-16.75-3.713-32.835-11.136-48.25-7.423-15.418-17.89-27.412-31.405-35.976h38.54L303.2 0H178.441c-17.699 0-35.498 1.906-53.384 5.72-26.453 5.9-48.723 19.368-66.806 40.397-18.08 21.033-27.122 44.873-27.122 71.52 0 28.171 10.138 51.583 30.406 70.233 20.269 18.649 44.585 27.978 72.945 27.978 5.71 0 12.371-.478 19.985-1.427-.381 1.521-1.043 3.567-1.997 6.136s-1.715 4.62-2.286 6.14c-.57 1.521-1.047 3.375-1.425 5.566a38.99 38.99 0 0 0-.571 6.71c0 12.563 6.086 26.744 18.271 42.541-14.465.387-28.737 1.67-42.825 3.86-14.084 2.19-28.833 5.616-44.252 10.28-15.417 4.661-29.217 11.42-41.396 20.27-12.182 8.854-21.317 19.366-27.408 31.549C3.533 361.559.01 374.405.01 386.017c0 12.751 2.857 24.314 8.565 34.69 5.708 10.369 13.035 18.842 21.982 25.406 8.945 6.57 19.273 12.083 30.978 16.562 11.704 4.47 23.315 7.659 34.829 9.562 11.516 1.903 22.888 2.854 34.119 2.854 51.007 0 90.981-12.464 119.909-37.397 26.648-23.223 39.971-50.062 39.971-80.517 0-10.855-1.57-20.984-4.712-30.409-3.141-9.431-7.231-17.514-12.279-24.27zM163.311 198.722c-9.707 0-18.937-2.475-27.694-7.426-8.757-4.95-16.18-11.374-22.27-19.273-6.088-7.898-11.418-16.796-15.987-26.695-4.567-9.896-7.944-19.792-10.135-29.692-2.19-9.895-3.284-19.318-3.284-28.265 0-18.271 4.854-33.974 14.562-47.108 9.705-13.134 23.411-19.701 41.112-19.701 12.563 0 23.935 3.899 34.118 11.704 10.183 7.804 18.177 17.701 23.984 29.692a187.496 187.496 0 0 1 13.417 37.257c3.14 12.847 4.711 24.983 4.711 36.403 0 19.036-4.139 34.317-12.419 45.833-8.282 11.513-21.651 17.271-40.115 17.271zm78.94 214.401c-5.23 8.949-12.319 15.94-21.267 20.981-8.946 5.048-18.509 8.758-28.693 11.14-10.183 2.385-20.889 3.572-32.12 3.572-12.182 0-24.27-1.431-36.258-4.284-11.99-2.851-23.459-7.187-34.403-12.991-10.944-5.8-19.795-13.798-26.551-23.982-6.757-10.184-10.135-21.744-10.135-34.69 0-11.419 2.568-21.601 7.708-30.55 5.142-8.945 11.709-16.084 19.702-21.408 7.994-5.332 17.319-9.713 27.979-13.131 10.66-3.433 20.937-5.808 30.833-7.139 9.895-1.335 19.985-1.995 30.262-1.995 6.283 0 11.043.191 14.277.567 1.143.767 4.043 2.759 8.708 5.996s7.804 5.428 9.423 6.57c1.615 1.137 4.567 3.326 8.85 6.563 4.281 3.237 7.327 5.661 9.135 7.279 1.803 1.618 4.421 4.045 7.849 7.279 3.424 3.237 5.948 6.043 7.566 8.422a982.05 982.05 0 0 0 5.996 8.702c2.38 3.433 4.043 6.715 4.998 9.855a158.985 158.985 0 0 1 2.707 10.277c.855 3.72 1.283 7.569 1.283 11.57.005 11.987-2.613 22.456-7.849 31.397z"/><path d="M401.998 73.089V0h-36.549v73.089h-73.091v36.547h73.091v73.089h36.549v-73.089h73.083V73.089z"/></symbol><symbol viewBox="0 0 97.395 97.395" id="insta-icon" xmlns="http://www.w3.org/2000/svg"><path d="M12.501 0h72.393c6.875 0 12.5 5.09 12.5 12.5v72.395c0 7.41-5.625 12.5-12.5 12.5H12.501C5.624 97.395 0 92.305 0 84.895V12.5C0 5.09 5.624 0 12.501 0zm58.447 10.821a4.395 4.395 0 0 0-4.383 4.385v10.495a4.396 4.396 0 0 0 4.383 4.385h11.008a4.398 4.398 0 0 0 4.385-4.385V15.206a4.397 4.397 0 0 0-4.385-4.385H70.948zm15.439 30.367h-8.572a28.486 28.486 0 0 1 1.25 8.355c0 16.2-13.556 29.332-30.275 29.332-16.718 0-30.272-13.132-30.272-29.332 0-2.904.438-5.708 1.25-8.355h-8.945v41.141a3.884 3.884 0 0 0 3.872 3.872h67.822a3.883 3.883 0 0 0 3.872-3.872V41.188h-.002zM48.789 29.533c-10.802 0-19.56 8.485-19.56 18.953s8.758 18.953 19.56 18.953c10.803 0 19.562-8.485 19.562-18.953s-8.758-18.953-19.562-18.953z"/></symbol><symbol viewBox="0 0 430.117 430.117" id="lin-icon" xmlns="http://www.w3.org/2000/svg"><path d="M430.117 261.543V420.56h-92.188V272.193c0-37.271-13.334-62.707-46.703-62.707-25.473 0-40.632 17.142-47.301 33.724-2.432 5.928-3.058 14.179-3.058 22.477V420.56h-92.219s1.242-251.285 0-277.32h92.21v39.309c-.187.294-.43.611-.606.896h.606v-.896c12.251-18.869 34.13-45.824 83.102-45.824 60.673-.001 106.157 39.636 106.157 124.818zM52.183 9.558C20.635 9.558 0 30.251 0 57.463c0 26.619 20.038 47.94 50.959 47.94h.616c32.159 0 52.159-21.317 52.159-47.94-.606-27.212-20-47.905-51.551-47.905zM5.477 420.56h92.184V143.24H5.477v277.32z"/></symbol><symbol viewBox="0 0 310.05 310.05" id="pint-icon" xmlns="http://www.w3.org/2000/svg"><path d="M245.265 31.772C223.923 11.284 194.388 0 162.101 0c-49.32 0-79.654 20.217-96.416 37.176-20.658 20.9-32.504 48.651-32.504 76.139 0 34.513 14.436 61.003 38.611 70.858 1.623.665 3.256 1 4.857 1 5.1 0 9.141-3.337 10.541-8.69.816-3.071 2.707-10.647 3.529-13.936 1.76-6.495.338-9.619-3.5-14.142-6.992-8.273-10.248-18.056-10.248-30.788 0-37.818 28.16-78.011 80.352-78.011 41.412 0 67.137 23.537 67.137 61.425 0 23.909-5.15 46.051-14.504 62.35-6.5 11.325-17.93 24.825-35.477 24.825-7.588 0-14.404-3.117-18.705-8.551-4.063-5.137-5.402-11.773-3.768-18.689 1.846-7.814 4.363-15.965 6.799-23.845 4.443-14.392 8.643-27.985 8.643-38.83 0-18.55-11.404-31.014-28.375-31.014-21.568 0-38.465 21.906-38.465 49.871 0 13.715 3.645 23.973 5.295 27.912-2.717 11.512-18.865 79.953-21.928 92.859-1.771 7.534-12.44 67.039 5.219 71.784 19.841 5.331 37.576-52.623 39.381-59.172 1.463-5.326 6.582-25.465 9.719-37.845 9.578 9.226 25 15.463 40.006 15.463 28.289 0 53.73-12.73 71.637-35.843 17.367-22.418 26.932-53.664 26.932-87.978 0-26.826-11.52-53.272-31.604-72.556z"/></symbol><symbol viewBox="0 0 475.084 475.084" id="search-icon" xmlns="http://www.w3.org/2000/svg"><path d="M464.524 412.846l-97.929-97.925c23.6-34.068 35.406-72.047 35.406-113.917 0-27.218-5.284-53.249-15.852-78.087-10.561-24.842-24.838-46.254-42.825-64.241-17.987-17.987-39.396-32.264-64.233-42.826C254.246 5.285 228.217.003 200.999.003c-27.216 0-53.247 5.282-78.085 15.847C98.072 26.412 76.66 40.689 58.673 58.676c-17.989 17.987-32.264 39.403-42.827 64.241C5.282 147.758 0 173.786 0 201.004c0 27.216 5.282 53.238 15.846 78.083 10.562 24.838 24.838 46.247 42.827 64.234 17.987 17.993 39.403 32.264 64.241 42.832 24.841 10.563 50.869 15.844 78.085 15.844 41.879 0 79.852-11.807 113.922-35.405l97.929 97.641c6.852 7.231 15.406 10.849 25.693 10.849 9.897 0 18.467-3.617 25.694-10.849 7.23-7.23 10.848-15.796 10.848-25.693.003-10.082-3.518-18.651-10.561-25.694zM291.363 291.358c-25.029 25.033-55.148 37.549-90.364 37.549-35.21 0-65.329-12.519-90.36-37.549-25.031-25.029-37.546-55.144-37.546-90.36 0-35.21 12.518-65.334 37.546-90.36 25.026-25.032 55.15-37.546 90.36-37.546 35.212 0 65.331 12.519 90.364 37.546 25.033 25.026 37.548 55.15 37.548 90.36 0 35.216-12.519 65.331-37.548 90.36z"/></symbol><symbol viewBox="0 0 612 612" id="tw-icon" xmlns="http://www.w3.org/2000/svg"><path d="M612 116.258a250.714 250.714 0 0 1-72.088 19.772c25.929-15.527 45.777-40.155 55.184-69.411-24.322 14.379-51.169 24.82-79.775 30.48-22.907-24.437-55.49-39.658-91.63-39.658-69.334 0-125.551 56.217-125.551 125.513 0 9.828 1.109 19.427 3.251 28.606-104.326-5.24-196.835-55.223-258.75-131.174-10.823 18.51-16.98 40.078-16.98 63.101 0 43.559 22.181 81.993 55.835 104.479a125.556 125.556 0 0 1-56.867-15.756v1.568c0 60.806 43.291 111.554 100.693 123.104-10.517 2.83-21.607 4.398-33.08 4.398-8.107 0-15.947-.803-23.634-2.333 15.985 49.907 62.336 86.199 117.253 87.194-42.947 33.654-97.099 53.655-155.916 53.655-10.134 0-20.116-.612-29.944-1.721 55.567 35.681 121.536 56.485 192.438 56.485 230.948 0 357.188-191.291 357.188-357.188l-.421-16.253c24.666-17.593 46.005-39.697 62.794-64.861z"/></symbol></svg>